# xmcd
#
# Track frame offsets: 
#        150
#        21255
#        38370
#        53693
#        69463
#        82833
#        103228
#        123845
#        141340
#
# Disc length: 2146 seconds
#
# Revision: 0
# Processed by: cddbd v1.5.2PL0 Copyright (c) Steve Scherf et al.
# Submitted via: ExactAudioCopy v0.99pb5
#
DISCID=6d086009
DTITLE=Artie 'Blues Boy' White - Thangs Got To Change
DYEAR=1989
DGENRE=Blues
TTITLE0=Thangs Got To Change
TTITLE1=Rainy Day
TTITLE2=I Ain't Taking No Prisoners
TTITLE3=You Upset Me Baby
TTITLE4=Thank You, Pretty Baby
TTITLE5=Hattie Mae
TTITLE6=I Wonder Why
TTITLE7=Reconsider Baby
TTITLE8=Somebody's On My Case
EXTD=
EXTT0=
EXTT1=
EXTT2=
EXTT3=
EXTT4=
EXTT5=
EXTT6=
EXTT7=
EXTT8=
PLAYORDER=
